# xmcd
#
# Track frame offsets:
#	182
#	14687
#	31770
#	43547
#	58675
#	73647
#	84235
#	97160
#	108590
#	127050
#	140990
#	152555
#	167982
#	188890
#	203245
#
# Disc length: 2968 seconds
#
# Revision: 2
# Processed by: cddbd v1.5.1PL0 Copyright (c) Steve Scherf et al.
# Submitted via: audiograbber 1.81.03
#
DISCID=da0b960f
DTITLE=Reckless Fingers - Below Sea Level
DYEAR=1990
DGENRE=Country
TTITLE0=Below Sea Level
TTITLE1=May 15
TTITLE2=Sweet Georgia Brown
TTITLE3=Lord Franklin
TTITLE4=Gaslight
TTITLE5=Pigeon River Breakdown
TTITLE6=Let your hair hang down
TTITLE7=Dadiesque
TTITLE8=Before you close your eyes
TTITLE9=Though I love you still
TTITLE10=Bluegrass Baby in the square Eights
TTITLE11=Darcy Farrow
TTITLE12=Emily
TTITLE13=Spring Tide
TTITLE14=Walk with me
EXTD=
EXTT0=
EXTT1=
EXTT2=
EXTT3=
EXTT4=
EXTT5=
EXTT6=
EXTT7=
EXTT8=
EXTT9=
EXTT10=
EXTT11=
EXTT12=
EXTT13=
EXTT14=
PLAYORDER=
